<svg xmlns="http://www.w3.org/2000/svg" width="16" height="16" viewBox="0 0 16 16">
  <g fill="#2e3436">
    <path d="M2 3h10a1 1 0 0 1 1 1v1h1V3h1v10h-1v-2h-1v1a1 1 0 0 1-1 1H2a1 1 0 0 1-1-1V4a1 1 0 0 1 1-1zm0 1v8h10V4H2z"/>
    <path d="M7 5a3 3 0 1 0 0 6 3 3 0 0 0 0-6zm0 1c.45 0 .81.13 1.1.34L7.5 7.5l1.16-.6c.2.29.34.65.34 1.1 0 .45-.13.81-.34 1.1L7.5 8.5l.6 1.16c-.29.2-.65.34-1.1.34-.45 0-.81-.13-1.1-.34l.6-1.16-1.16.6A1.9 1.9 0 0 1 5 8c0-.45.13-.81.34-1.1l1.16.6-.6-1.16C6.19 6.13 6.55 6 7 6z"/>
    <path d="M3 13h1v2H3zm2 0h1v2H5zm2 0h1v2H7zm2 0h1v2H9z"/>
  </g>
</svg>
